# xmcd
#
# Track frame offsets:
#	150
#	12690
#	21252
#	35137
#	43595
#	56007
#	65807
#	75817
#	86327
#	100487
#	114847
#	130652
#	146687
#	162362
#	179332
#	190177
#	205002
#	216437
#	233215
#	249772
#	265607
#	279467
#	294125
#
# Disc length: 4115 seconds
#
# Revision: 1
# Processed by: cddbd v1.4PL0 Copyright (c) Steve Scherf et al.
# Submitted via: audiograbber 1.80
#
DISCID=42101117
DTITLE=dick curless - a tomstone every mile disc 3
DYEAR=1900
DGENRE=
TTITLE0=the yellow rose of texas 1960
TTITLE1=liza jane 1960
TTITLE2=careless love 1960
TTITLE3=buffalo gal 1960
TTITLE4=san antonio rose 1960
TTITLE5=little brown jug 1960
TTITLE6=i've been working on the railroad 1965
TTITLE7=silver threads among the gold 1965
TTITLE8=you tell me your dream, i'll tell you mine 1965
TTITLE9=i was seeing nellie home 1965
TTITLE10=beautiful dreamer 1965
TTITLE11=my old kentucky home 1965
TTITLE12=whispering hope 1960
TTITLE13=what a friend we have in jesus 1960
TTITLE14=rock of ages 1960
TTITLE15=the church in the wildwood 1960
TTITLE16=bring them in 1960
TTITLE17=onward, christian soldiers 1960
TTITLE18=nearer my god to thee 1960
TTITLE19=in the garden 1960
TTITLE20=jesus loves me 1960
TTITLE21=i love to tell the story 1960
TTITLE22=the old rugged cross 1960
EXTD=
EXTT0=
EXTT1=
EXTT2=
EXTT3=
EXTT4=
EXTT5=
EXTT6=
EXTT7=
EXTT8=
EXTT9=
EXTT10=
EXTT11=
EXTT12=
EXTT13=
EXTT14=
EXTT15=
EXTT16=
EXTT17=
EXTT18=
EXTT19=
EXTT20=
EXTT21=
EXTT22=
PLAYORDER=
